HIERARCHY
ROOT pelvis
{
  OFFSET 0 100 0
  CHANNELS 6 Xposition Yposition Zposition Zrotation Xrotation Yrotation
  JOINT pelvis_right_femur
  {
    OFFSET -10.78128 -3.44521 -0.5502486
    CHANNELS 3 Zrotation Xrotation Yrotation
    JOINT right_femur_tibia
    {
      OFFSET -0.8047443 -44.0398 -0.1307829
      CHANNELS 3 Zrotation Xrotation Yrotation
      JOINT right_tibia_foot
      {
        OFFSET 3.006224 -47.83518 -5
        CHANNELS 3 Zrotation Xrotation Yrotation
        End Site
        {
          OFFSET 0 -5 15
        }
      }
    }
  }
  JOINT pelvis_left_femur
  {
    OFFSET 10.78128 -3.44521 -0.5502486
    CHANNELS 3 Zrotation Xrotation Yrotation
    JOINT left_femur_tibia
    {
      OFFSET 0.8047443 -44.0398 -0.1307829
      CHANNELS 3 Zrotation Xrotation Yrotation
      JOINT left_tibia_foot
      {
        OFFSET -4.370144 -48.10324 -4.275266
        CHANNELS 3 Zrotation Xrotation Yrotation
        End Site
        {
          OFFSET 0 -5 15
        }
      }
    }
  }
  JOINT pelvis_spine1
  {
    OFFSET 0 6.468898 -3.129235
    CHANNELS 3 Zrotation Xrotation Yrotation
    JOINT spine1
    {
      OFFSET 0 23.15396 4.99043
      CHANNELS 3 Zrotation Xrotation Yrotation
      JOINT spine2
      {
        OFFSET 0 20.79997 -5.064912
        CHANNELS 3 Zrotation Xrotation Yrotation
        JOINT neck
        {
          OFFSET 0 14.38658 9.616178
          CHANNELS 3 Zrotation Xrotation Yrotation
          End Site
          {
            OFFSET 0 20 0
          }
        }
      }
      JOINT right_manubrium
      {
        OFFSET -5.722621 16.35077 3.967754
        CHANNELS 3 Zrotation Xrotation Yrotation
        JOINT right_clavicle
        {
          OFFSET -13.16364 1.694482 -4.693211
          CHANNELS 3 Zrotation Xrotation Yrotation
          JOINT right_humerus
          {
            OFFSET -28.5034 -0.3100689 -2.792744
            CHANNELS 3 Zrotation Xrotation Yrotation
            JOINT right_radius
            {
              OFFSET -25.15693 0.02248979 -1.271978
              CHANNELS 3 Zrotation Xrotation Yrotation
              End Site
              {
                OFFSET -15 0 0
              }
            }
          }
        }
      }
      JOINT left_manubrium
      {
        OFFSET 5.722621 16.35077 3.967754
        CHANNELS 3 Zrotation Xrotation Yrotation
        JOINT left_clavicle
        {
          OFFSET 13.16364 1.694482 -4.693211
          CHANNELS 3 Zrotation Xrotation Yrotation
          JOINT left_humerus
          {
            OFFSET 29.39168 -1.063119 -2.237045
            CHANNELS 3 Zrotation Xrotation Yrotation
            JOINT left_radius
            {
              OFFSET 24.59957 -0.9528479 0.9047498
              CHANNELS 3 Zrotation Xrotation Yrotation
              End Site
              {
                OFFSET 15 -0 -0
              }
            }
          }
        }
      }
    }
  }
}
MOTION
Frames: 15
Frame Time: 0.0416666666667
0 103.5113 0 1.435455 -3.4148 0.3357472 1.573407 -10.54234 7.237481 -0 40.18772 -0 -5.579773 -16.66776 -4.272773 -6.500613 13.68365 -23.70217 -0 5.233129 -0 0.3718793 -19.11339 23.01608 -0.6522515 -2.109564 4.753721 -0.8074572 7.291397 -7.016095 1.662514 21.96927 8.790646 6.026106 -22.34478 9.200309 5.629859 -19.34716 9.948339 88.75448 36.16918 -23.00521 -0 0 18.40313 -6.818566 7.366829 2.021769 7.438867 -21.27916 -2.741612 -101.7124 42.91844 29.98704 0 0 -25.7366 -10.18295 18.01591 28.53463
0.08657819 103.7465 1.413773 0.4986546 -2.270879 0.4610422 3.29841 -13.83549 8.86077 -0 42.24909 -0 -5.64554 -15.86192 -4.986596 -5.803851 13.61294 -23.92315 -0 5.330786 -0 -0.8574978 -20.52941 23.02028 -0.5888304 -2.03561 4.713062 -0.7248255 7.304933 -7.055521 1.63892 21.93643 8.778216 5.99475 -22.409 9.166222 5.626554 -19.21 9.964052 88.80899 36.25538 -23.07323 -0 0 18.09965 -6.940019 7.591716 2.101086 7.432429 -21.32071 -2.716836 -101.3664 42.64928 29.63522 0 0 -25.7627 -9.864505 17.95055 28.26355
0.318827 103.3708 3.63577 -0.05923189 -1.040605 0.4445499 3.593134 -22.62522 4.997863 -0 32.32981 -0 -6.781108 -9.498058 -2.947813 -5.740994 13.07179 -19.97738 -0 5.573777 -0 2.4117 -21.28454 21.42532 -0.6479869 -0.0306898 2.441602 3.105913 7.670397 -8.591454 0.6849021 21.22107 7.843459 4.458411 -24.21466 7.406249 6.271646 -15.13667 11.4995 87.55981 35.12037 -22.87563 -0 0 9.950212 -11.56818 12.10786 7.441544 4.917444 -20.60751 -3.124379 -91.63657 33.10978 19.0062 0 0 -23.57557 -4.4016 13.71232 21.34627
0.5642551 102.827 6.001674 -0.2400031 -0.0746778 0.410354 4.217273 -25.43049 5.251417 -0 29.52843 -0 -6.609404 -8.846004 -2.893959 -5.809103 12.74868 -19.60182 -0 5.825153 -0 3.771523 -21.68447 21.78551 -0.7888943 -0.5560138 2.588678 2.612295 7.283153 -8.44451 0.8793708 21.38533 7.979317 4.694132 -24.24234 7.831746 6.138471 -16.03987 11.19951 87.68288 34.74083 -23.07338 -0 0 11.93921 -9.637878 10.50303 6.118333 5.305903 -20.47699 -2.985765 -93.93057 36.11716 21.38125 0 0 -23.77934 -6.558557 14.83794 23.66301
0.8103647 102.3177 8.190876 -0.5677598 1.20832 0.3560908 5.723098 -27.10926 7.556099 -0 29.68211 -0 -6.340091 -10.21911 -3.386899 -5.852513 11.94482 -21.07162 -0 6.176399 -0 4.963129 -22.04237 23.39598 -0.8363537 -0.8759825 2.628029 3.06855 7.142403 -9.08427 0.8872659 20.55536 8.061942 4.910037 -24.89406 7.858026 6.769525 -15.77319 11.31076 86.86673 34.1114 -23.83526 -0 0 12.33088 -7.421784 9.922665 5.430372 6.162579 -21.0921 -2.483624 -93.71154 36.1755 20.45284 0 0 -25.28588 -5.792331 14.72836 22.64514
1.054095 101.7602 10.37444 -0.8819271 2.01717 0.3350421 6.692669 -28.87488 8.505666 -0 28.75463 -0 -6.408597 -10.20784 -3.472858 -5.76391 11.57178 -21.75494 -0 6.562502 -0 5.057049 -22.67573 23.77705 -0.701064 -0.8726052 2.74566 3.017962 7.208773 -9.136532 0.9012654 20.40382 8.104392 4.988986 -24.89868 7.864834 6.825794 -15.69039 11.27594 86.92926 34.33484 -24.04573 -0 0 12.20691 -7.298467 10.12917 5.247652 6.429594 -21.35878 -2.381181 -93.53769 35.96979 20.23078 0 0 -25.75123 -5.236288 14.71169 22.24682
1.290141 101.1328 12.6723 -1.153497 2.639393 0.389073 7.309168 -30.73776 8.669288 -0 26.89756 -0 -6.586324 -9.525778 -3.345538 -5.615912 11.53976 -21.98116 -0 6.968701 -0 4.51166 -23.47945 23.35759 -0.6309721 -0.8909042 2.82233 3.010279 7.240039 -9.196952 0.911492 20.27617 8.135134 5.04347 -24.93358 7.878535 6.887124 -15.63985 11.26124 86.92047 34.44232 -24.19947 -0 0 12.17142 -7.111905 10.21988 5.099424 6.629834 -21.54237 -2.289842 -93.44024 35.8583 20.07541 0 0 -26.09489 -4.872052 14.7007 21.95977
1.511808 100.4145 15.22997 -1.330137 3.095159 0.5552758 7.521133 -32.56421 8.115811 -0 24.15019 -0 -6.718589 -8.306503 -3.064399 -5.454993 11.92864 -21.6258 -0 7.416709 -0 3.702913 -24.19544 22.27058 -0.5021548 -0.8423185 2.912382 2.904145 7.322809 -9.158719 0.9191904 20.25976 8.153869 5.080575 -24.83762 7.867628 6.851063 -15.58555 11.20958 87.1237 34.74614 -24.31628 -0 0 11.95415 -7.316453 10.4875 5.035234 6.75649 -21.70614 -2.282443 -93.2658 35.64439 19.94763 0 0 -26.33514 -4.449788 14.68174 21.7183
1.712674 99.62582 18.18415 -1.458883 3.477547 0.8718387 7.516934 -34.22006 7.209079 -0 20.97896 -0 -6.763866 -6.833142 -2.750187 -5.270975 12.68877 -20.88498 -0 8.072267 -0 2.68919 -24.69523 20.72744 -0.3934131 -0.8060874 2.995053 2.787555 7.394639 -9.10631 0.9298977 20.27073 8.170163 5.109706 -24.7284 7.866387 6.802052 -15.56312 11.15595 87.32946 35.02326 -24.40812 -0 0 11.79469 -7.528537 10.71802 4.974484 6.856755 -21.83476 -2.286774 -93.15611 35.50659 19.89702 0 0 -26.51308 -4.136665 14.69188 21.56929
1.888886 98.82394 21.69134 -1.585361 3.818005 1.36313 7.437935 -35.51595 6.163541 -0 17.79241 -0 -6.678623 -5.214584 -2.477659 -5.04796 13.81432 -19.78948 -0 9.212473 -0 1.429568 -24.77569 18.80541 -0.2744327 -0.7543376 3.073399 2.651117 7.478494 -9.029998 0.9386239 20.31396 8.18325 5.12662 -24.58542 7.862593 6.72376 -15.53894 11.09586 87.59814 35.34123 -24.49335 -0 0 11.5846 -7.863189 11.00886 4.94919 6.930529 -21.95153 -2.312199 -93.01663 35.32897 19.84061 0 0 -26.64519 -3.814619 14.70107 21.42437
2.044495 98.11549 25.90264 -1.783528 4.13252 2.019006 7.475695 -36.13314 5.247598 -0 15.19259 -0 -6.475566 -3.640464 -2.322778 -4.758086 15.17308 -18.42685 -0 11.30844 -0 -0.2713214 -24.16094 16.57357 -0.174022 -0.6837395 3.111749 2.545035 7.559019 -8.950062 0.9370885 20.38354 8.184834 5.115319 -24.44578 7.847101 6.630305 -15.49725 11.05333 87.86943 35.61307 -24.5413 -0 0 11.32194 -8.30338 11.32544 5.012985 6.931812 -22.01552 -2.362447 -92.82815 35.08685 19.73776 0 0 -26.6632 -3.543826 14.67943 21.28746
2.198466 97.64741 30.90328 -2.131889 4.382045 2.757076 7.804561 -35.60386 4.729 -0 13.86795 -0 -6.247721 -2.434169 -2.33053 -4.381693 16.36368 -16.91251 -0 15.03103 -0 -2.539956 -22.44465 14.20654 -0.1139587 -0.5856992 3.085663 2.497648 7.628118 -8.869419 0.9198881 20.48897 8.166228 5.062715 -24.32424 7.809787 6.525285 -15.4332 11.04596 88.09683 35.77728 -24.50358 -0 0 11.01048 -8.870443 11.64312 5.219377 6.807465 -21.98259 -2.451604 -92.59172 34.77001 19.5878 0 0 -26.48419 -3.397306 14.60718 21.19527
2.383194 97.56553 36.6166 -2.666707 4.432266 3.392112 8.443543 -33.45267 4.722134 -0 14.23324 -0 -6.197929 -2.028842 -2.464132 -3.902149 16.59599 -15.36916 -0 21.08768 -0 -5.254931 -19.2115 11.99952 -0.131592 -0.4567027 2.974499 2.537881 7.670409 -8.78541 0.8827856 20.64784 8.116895 4.956114 -24.23843 7.741957 6.416803 -15.35935 11.09386 88.1993 35.76149 -24.29774 -0 0 10.69603 -9.557515 11.8952 5.618389 6.490436 -21.78776 -2.595357 -92.35132 34.40987 19.44175 0 0 -25.99654 -3.494224 14.47301 21.22281
2.625376 97.95185 42.74624 -3.306915 4.069834 3.663081 9.16489 -29.56879 5.019485 -0 15.92542 -0 -6.525616 -2.694764 -2.513008 -3.308015 14.83578 -13.85022 -0 29.82236 -0 -7.863045 -14.29133 10.22573 -0.238262 -0.3016988 2.809878 2.622992 7.687883 -8.656908 0.8333809 20.90204 8.039403 4.794964 -24.14836 7.659658 6.282986 -15.32825 11.18525 88.17733 35.62498 -23.85867 -0 0 10.45123 -10.41034 12.07157 6.195695 5.962244 -21.40216 -2.800642 -92.19684 34.07985 19.44154 0 0 -25.14111 -3.889279 14.31885 21.44676
2.919297 98.77242 48.86747 -3.752275 3.185085 3.406506 9.532921 -24.60967 5.065582 -0 17.49423 -0 -7.265958 -4.248596 -2.12678 -2.718013 10.53302 -12.42855 -0 40.46555 -0 -9.462356 -8.437314 8.948963 -0.4046028 -0.1377478 2.665552 2.669608 7.69959 -8.44419 0.7890124 21.26658 7.954385 4.598205 -23.99302 7.60164 6.09415 -15.39468 11.28279 88.10453 35.52545 -23.20537 -0 0 10.33565 -11.46322 12.24024 6.856939 5.299279 -20.87974 -3.040562 -92.19739 33.83747 19.70783 0 0 -24.00577 -4.495137 14.21295 21.86023
